<?xml version="1.0" encoding="UTF-8"?>
<!DOCTYPE svg PUBLIC "-//W3C//DTD SVG 1.1//EN" "http://www.w3.org/Graphics/SVG/1.1/DTD/svg11.dtd">
<!-- Creator: CorelDRAW 2020 (64 Bit) -->
<svg xmlns="http://www.w3.org/2000/svg" xml:space="preserve" width="23.3322mm" height="21.2884mm" version="1.1" style="shape-rendering:geometricPrecision; text-rendering:geometricPrecision; image-rendering:optimizeQuality; fill-rule:evenodd; clip-rule:evenodd"
viewBox="0 0 2333.22 2128.84"
 xmlns:xlink="http://www.w3.org/1999/xlink"
 xmlns:xodm="http://www.corel.com/coreldraw/odm/2003">
 <defs>
  <style type="text/css">
   <![CDATA[
    .fil0 {fill:#FEFEFE}
   ]]>
  </style>
 </defs>
 <g id="Camada_x0020_1">
  <metadata id="CorelCorpID_0Corel-Layer"/>
  <g id="_2404253091312">
   <path class="fil0" d="M864.83 1234.75c0,-149.08 73.41,-332.38 201.75,-414.24 212.79,-135.74 464.46,-29.25 509.05,-28.26 4.42,-16.54 38.39,-72.48 49.3,-90.62l157.79 -278.77c-15.39,-22.99 -61.18,-47.34 -91.05,-60.06 -97.36,-41.48 -298.89,-84.28 -392.42,-71.26 -114.31,15.92 -115.22,-5.42 -269.81,38.47 -83.08,23.58 -153.11,53.23 -217.23,96.2 -34.52,23.12 -56.74,36.93 -85.84,65.27 -16,15.58 -26.26,19.44 -42.24,36.12 -66.39,69.33 -115.36,146.62 -158.86,232.93 -53.09,105.31 -108.99,309.87 -108.2,434.7 0.09,15.13 -0.18,23.41 -1.93,38.05 -0.36,2.91 -5,18.11 1.93,29.46 0,189.43 129.47,450.46 230.85,552.38 55.12,55.41 19.01,26.92 89.52,89.58 87.18,77.47 160.4,119.74 286.04,156.11 179.08,51.85 432.61,51.49 613.73,-20.43 140.16,-55.66 327.88,-176.16 408.57,-296.65 -41.37,-27.7 -98.03,-81.54 -134.33,-100.74 32.09,-47.93 41.64,-42.44 78.44,-117.45 50.72,-103.38 62.22,-203.27 72.42,-319.44 3.39,-38.58 -5.15,-54.74 -5.43,-89.13 -0.17,-20.69 -0.33,-28.55 -2.94,-47.53 -0.73,-5.35 -1.62,-15.18 -2.38,-20.01l-5.78 -19.53c0,-64.77 -48.28,-158.28 -74.51,-202.32 -22.35,-37.54 -91.22,-138.26 -121.39,-158.46l-184.7 190.3c21.67,32.35 40.81,29.69 85.76,110.13 18.69,33.45 48.57,104.98 48.57,153.26 0,242.19 -143.2,526.98 -414.36,564.76 -178.62,24.89 -275.33,-30.79 -362.32,-118.63 -69.81,-70.49 -158,-251.43 -158,-334.19z"/>
   <path class="fil0" d="M234.83 1195.23c20.85,15.06 85.69,22.23 115.08,25.75 0,-103.83 51.75,-386.4 85.97,-488.27 17.97,-53.51 95.73,-178.68 131.01,-221.6 73.99,-90 141.11,-157.17 241.63,-217.31 93.67,-56.04 205.4,-108.54 341.34,-123.21 38.37,-4.14 51.76,-11.08 101.12,-10.83 127.01,0.67 173.57,-3.29 308.6,38.49 106.94,33.09 234.16,89.51 315.94,148.6 49.92,36.07 78.94,66.09 121.29,108.18 76.58,76.14 136.05,180.08 181.46,277.49 16.63,35.67 53.72,133.89 57.8,175.16l67.16 -27.99c0,-107.53 -94.7,-299.29 -139.86,-367.34 -217.99,-328.45 -583.08,-532.87 -1044.32,-462.13 -279.27,42.84 -555.86,197.55 -710.97,430.81 -36.1,54.3 -64.04,108.74 -87.84,169.62 -52.93,135.38 -112.01,388.24 -85.41,544.58z"/>
   <path class="fil0" d="M349.91 1220.98c-29.39,-3.52 -94.23,-10.69 -115.08,-25.75 -114.3,0 -196.21,70.39 -215.35,178.89 -29.89,169.48 90.54,673.31 501.08,467.5 23.98,-12.02 42.69,-24.82 64.42,-36.32 -18.03,-26.92 -44.62,-37.9 -89.3,-112.19 -67.19,-111.73 -145.77,-351.63 -145.77,-472.13z"/>
   <path class="fil0" d="M1282.8 1206.11l12.1 -101.79c48.7,0.72 93.75,7.34 84.8,62.01 -7.62,46.53 -50.91,45.65 -96.9,39.78zm-132.53 218.6l95.15 0c0.42,-19.17 15.13,-108.65 25.16,-114.77 13.6,-8.29 103.09,3.77 135.25,-10.26 54.73,-23.88 143.15,-178.44 67.89,-259.99 -25.19,-27.29 -23.62,-28.12 -71.54,-29.21l-195.94 -11.14 -55.97 425.37z"/>
   <path class="fil0" d="M2236.07 907.68c4.65,64.74 21.96,154.27 12.73,221.92 -5.53,40.45 -3.31,73.35 -9.49,113.64 -5.91,38.55 -11.81,67.76 -21.17,101.96 -17.82,65.08 -39.2,114.98 -67.88,172.8 -48.4,97.58 -60.31,89.76 -98.89,147.37l43.64 40.34c48.67,-71.3 60.02,-73.86 103.75,-161.6 91.91,-184.4 114.59,-337.61 115.74,-539.25 0.27,-46.69 -8.33,-84.23 -11.27,-125.17l-67.16 27.99z"/>
  </g>
 </g>
</svg>
