<?xml version="1.0" encoding="UTF-8"?>
<!DOCTYPE svg PUBLIC "-//W3C//DTD SVG 1.1//EN" "http://www.w3.org/Graphics/SVG/1.1/DTD/svg11.dtd">
<!-- Creator: CorelDRAW 2020 (64 Bit) -->
<svg xmlns="http://www.w3.org/2000/svg" xml:space="preserve" width="25.312mm" height="25.3298mm" version="1.1" style="shape-rendering:geometricPrecision; text-rendering:geometricPrecision; image-rendering:optimizeQuality; fill-rule:evenodd; clip-rule:evenodd"
viewBox="0 0 2531.2 2532.98"
 xmlns:xlink="http://www.w3.org/1999/xlink"
 xmlns:xodm="http://www.corel.com/coreldraw/odm/2003">
 <defs>
  <style type="text/css">
   <![CDATA[
    .fil0 {fill:#FEFEFE}
   ]]>
  </style>
 </defs>
 <g id="Camada_x0020_1">
  <metadata id="CorelCorpID_0Corel-Layer"/>
  <path class="fil0" d="M1242.14 1521.9c-176.4,0 -352.8,-0.17 -529.2,0 -96.22,0.1 -151.88,-14.58 -207.25,-62.24 -102.97,-88.64 -116.22,-254.1 -2.6,-367.77 44.05,-44.08 116.71,-64.49 200.93,-64.4 179.42,0.18 358.84,0.01 538.26,0.01 -30.96,-49.62 -92.24,-72.06 -133.44,-162.08 -36.07,-78.82 -14.29,-170.75 29.82,-225.09 38.99,-48.02 109.18,-93.8 206.58,-81.38 89.98,11.47 135.78,67.94 178.19,110.37l434.23 434.53c37.27,37.31 112.25,91.47 107.93,178.17 -3.91,78.44 -80.66,135.24 -117.53,172.1l-434.42 434.34c-43.14,43.1 -88.25,97.82 -183.06,105.74 -90.65,7.57 -159.57,-42.08 -195.25,-90.33 -76.22,-103.05 -50.05,-221.07 37.01,-307.71 15.61,-15.53 64.83,-57.17 69.8,-74.26zm-37.26 -1286.22c-228.24,16.45 -400.49,85.91 -571.3,211.38 -56.76,41.7 -92.23,82 -136.73,126.19 -183.88,182.6 -288.33,498.73 -270.7,765.38 10.32,156.2 49.71,287.2 111.94,408.91 186.82,365.34 573.99,594.13 991.04,566.57 222.81,-14.73 401.71,-89.23 568.05,-211.42 146.23,-107.42 269.54,-274.79 337.29,-446.85 131.85,-334.85 77.19,-739.93 -141.74,-1012.28 -122.53,-152.44 -260.45,-265.12 -446.44,-337.66 -130.07,-50.73 -286.62,-81.38 -441.41,-70.22z"/>
 </g>
</svg>
