<?xml version="1.0" encoding="UTF-8"?>
<!DOCTYPE svg PUBLIC "-//W3C//DTD SVG 1.1//EN" "http://www.w3.org/Graphics/SVG/1.1/DTD/svg11.dtd">
<!-- Creator: CorelDRAW 2020 (64 Bit) -->
<svg xmlns="http://www.w3.org/2000/svg" xml:space="preserve" width="90.306mm" height="90.293mm" version="1.1" style="shape-rendering:geometricPrecision; text-rendering:geometricPrecision; image-rendering:optimizeQuality; fill-rule:evenodd; clip-rule:evenodd"
viewBox="0 0 9030.6 9029.3"
 xmlns:xlink="http://www.w3.org/1999/xlink"
 xmlns:xodm="http://www.corel.com/coreldraw/odm/2003">
 <defs>
  <style type="text/css">
   <![CDATA[
    .fil0 {fill:#7644D4}
   ]]>
  </style>
 </defs>
 <g id="Camada_x0020_1">
  <metadata id="CorelCorpID_0Corel-Layer"/>
  <path class="fil0" d="M1791.39 7865.95c19.55,-507.84 214.67,-1461.1 484.91,-1738.18 324.1,-332.29 1113.9,-327.03 1415.41,-769.79 251.76,92.75 351.26,345.19 781.28,358.59 427.03,13.3 552.68,-222.52 811.3,-318.89 113.81,58.64 210.66,143.31 348.91,215.78 312.7,163.9 923.54,303.15 1125.38,531.22 256.03,289.31 448.06,1230.07 466.95,1721.27 -1367.83,1280.71 -4049.46,1287.31 -5434.14,0zm2373.94 -5934.81c222.96,-52.14 1856.58,61.28 1644.93,1378.59 -83.89,522.1 56.77,329.4 -28.27,679.84 -397.46,1637.74 -1710.6,2032.43 -2274.36,643.81 -48.68,-119.89 -58.94,-174.79 -92.35,-296.02 -39.99,-145.15 -69.19,-151.63 -113.03,-275.64 -128.13,-362.52 48.48,-358.42 5.79,-709.73 -27.19,-223.71 -43.98,-473.93 24.34,-682.78 104.3,-318.82 479.5,-655.4 832.95,-738.07zm-14.77 -1915.49c-2367.35,189.88 -4355.27,2256.07 -4141.97,4868.26 192.56,2358.28 2259.83,4343.05 4868.94,4130.25 2357.61,-192.29 4343.18,-2261.17 4130.25,-4868.95 -192.51,-2357.57 -2256.24,-4338.17 -4857.22,-4129.56z"/>
 </g>
</svg>
