<?xml version="1.0" encoding="utf-8"?>
<!-- Generator: Adobe Illustrator 24.0.1, SVG Export Plug-In . SVG Version: 6.00 Build 0)  -->
<svg version="1.1" id="Camada_1" xmlns:xodm="http://www.corel.com/coreldraw/odm/2003"
	 xmlns="http://www.w3.org/2000/svg" xmlns:xlink="http://www.w3.org/1999/xlink" x="0px" y="0px" viewBox="0 0 595.3 841.9"
	 style="enable-background:new 0 0 595.3 841.9;" xml:space="preserve">
<style type="text/css">
	.st0{fill-rule:evenodd;clip-rule:evenodd;fill:#9caef5;opacity:40.0;}
	.st1{opacity:0.15;fill-rule:evenodd;clip-rule:evenodd;fill:#425ed0;}
	.st2{opacity:0.13;fill-rule:evenodd;clip-rule:evenodd;fill:#5879FA;}
</style>
<g id="Camada_x0020_1">
	<path class="st0" d="M0,0v170.2l15.9,30.2c5,12,24.8,25.2,39.1,29.1l182.4,60.9c23.2,4.8,40.2-4.1,62.1-19.8L599,56.5L599,0H0L0,0z
		"/>
	<polygon class="st1" points="451.7,127.8 431.6,98.2 398.2,90.5 371,109.1 366,143.1 386.1,172.6 419.5,180.4 446.7,161.8 	"/>
	<polygon class="st1" points="512.8,25.1 504.3,12.6 489.8,9.6 477.7,17.8 475.2,32.5 483.7,45 498.3,48 510.3,39.8 	"/>
	<polygon class="st1" points="207.4,211.8 198.9,199.3 184.3,196.3 172.3,204.5 169.8,219.2 178.3,231.7 192.8,234.7 204.9,226.5 	
		"/>
	<path class="st1" d="M248.1,145.9L248.1,145.9c16.6,10.5,38.7,5.6,49.2-11.1l21.9-34.6c10.5-16.6,5.6-38.7-11.1-49.2l0,0
		c-16.6-10.5-38.7-5.6-49.2,11.1L237,96.7C226.5,113.4,231.4,135.4,248.1,145.9z"/>
	<path class="st2" d="M90.9,169.1H0V0h139v121C139,147.6,117.4,169.1,90.9,169.1z"/>
</g>
</svg>
