<?xml version="1.0" encoding="UTF-8"?>
<!DOCTYPE svg PUBLIC "-//W3C//DTD SVG 1.1//EN" "http://www.w3.org/Graphics/SVG/1.1/DTD/svg11.dtd">
<!-- Creator: CorelDRAW 2020 (64 Bit) -->
<svg xmlns="http://www.w3.org/2000/svg" xml:space="preserve" width="25.263mm" height="25.2048mm" version="1.1" style="shape-rendering:geometricPrecision; text-rendering:geometricPrecision; image-rendering:optimizeQuality; fill-rule:evenodd; clip-rule:evenodd"
viewBox="0 0 2526.3 2520.48"
 xmlns:xlink="http://www.w3.org/1999/xlink"
 xmlns:xodm="http://www.corel.com/coreldraw/odm/2003">
 <defs>
  <style type="text/css">
   <![CDATA[
    .fil0 {fill:#BDBFC1}
   ]]>
  </style>
 </defs>
 <g id="Camada_x0020_1">
  <metadata id="CorelCorpID_0Corel-Layer"/>
  <g id="_2795728074288">
   <path class="fil0" d="M1645.94 156.91c-485.33,-68.62 -872.46,306.29 -921.45,723.77 -56.6,482.19 302.5,863.66 718.42,913.79 490.08,59.08 874.62,-303.65 921.09,-726.4 53.63,-487.91 -298.4,-851.81 -718.06,-911.16zm-737.74 1561.87l-128.75 125.08 46.26 52.59 -626.62 624.57 -206.24 -210.25c22.8,-40.95 598.19,-606.85 629.82,-622.67l46.56 47.52 129.29 -126.66c-30.24,-62.44 -101.85,-112.7 -169.1,-295.78 -146.18,-397.98 -21.19,-785.73 253.07,-1055.87 162.71,-160.27 438.82,-263.92 688.34,-256.41 292.6,8.81 530.08,146.73 667.29,287.03 256.45,262.22 364.62,676.7 208.75,1058.76 -223.17,547.02 -899.38,773.12 -1398.81,467.73l-139.86 -95.64z"/>
   <path class="fil0" d="M2050.64 990.31c-2.05,-2.37 -4.61,-9.26 -5.49,-7.61 -0.86,1.61 -4.07,-5.54 -5.19,-7.54 -4.85,-8.64 -8.04,-14.26 -11.65,-22.87 -5.8,-13.87 -9.21,-29.25 -15.03,-44.04 -19.08,-48.45 -52.17,-103.64 -86.64,-140.92 -317.76,-343.65 -832,-128.34 -884.42,253.86 -48.19,-293.79 213.75,-540.4 478.81,-552.58 302.92,-13.91 530.66,223.72 529.61,521.7z"/>
  </g>
 </g>
</svg>
