<svg id="Camada_1" data-name="Camada 1" xmlns="http://www.w3.org/2000/svg" viewBox="0 0 1214.06 1080"><defs><style>.cls-1{fill:#5879FA;opacity:0.39;}.cls-2{fill:#5879fa;opacity:0.24;}</style></defs><title>quadsvg</title><path class="cls-1" d="M1163.17,0H693.34A138.19,138.19,0,0,0,573.91,68.67L340,470.47a138.25,138.25,0,0,0,0,139.06l233.92,401.8A138.19,138.19,0,0,0,693.34,1080h469.83a138.18,138.18,0,0,0,119.43-68.67l233.92-401.8a138.2,138.2,0,0,0,0-139.06L1282.6,68.67A138.18,138.18,0,0,0,1163.17,0Z" transform="translate(-321.23)"/><path class="cls-2" d="M1178.83,1012.76l-310.56,50.72a167.32,167.32,0,0,1-170.82-79.67L536.72,713.27a167.33,167.33,0,0,1-7.79-156.19L700.42,189.4A167.32,167.32,0,0,1,825.09,95l310.57-50.71A167.33,167.33,0,0,1,1306.48,124l160.73,270.54A167.33,167.33,0,0,1,1475,550.68L1303.51,918.35A167.3,167.3,0,0,1,1178.83,1012.76Z" transform="translate(-321.23)"/></svg>