<?xml version="1.0" encoding="UTF-8"?>
<!DOCTYPE svg PUBLIC "-//W3C//DTD SVG 1.1//EN" "http://www.w3.org/Graphics/SVG/1.1/DTD/svg11.dtd">
<!-- Creator: CorelDRAW 2020 (64 Bit) -->
<svg xmlns="http://www.w3.org/2000/svg" xml:space="preserve" width="12.846mm" height="7.663mm" version="1.1" style="shape-rendering:geometricPrecision; text-rendering:geometricPrecision; image-rendering:optimizeQuality; fill-rule:evenodd; clip-rule:evenodd"
viewBox="0 0 1284.6 766.3"
 xmlns:xlink="http://www.w3.org/1999/xlink"
 xmlns:xodm="http://www.corel.com/coreldraw/odm/2003">
 <defs>
  <style type="text/css">
   <![CDATA[
    .fil0 {fill:#2C4797}
   ]]>
  </style>
 </defs>
 <g id="Camada_x0020_1">
  <metadata id="CorelCorpID_0Corel-Layer"/>
  <path class="fil0" d="M1177.86 168.11c37.51,-36.48 18.73,-83.21 -27.67,-68.48 -15.84,5.03 -312.5,307.49 -346.9,341.89 -159.11,159.11 -143.86,175.67 -225.85,92.21 -78.94,-80.37 -154.9,-163.14 -238.84,-238.31l-102.1 -103.84c-46.99,-47.9 -121.12,-146.67 -148.35,-70.79 -10.14,28.27 99.93,121.65 121.3,143.03l411.51 412.4c32.91,33.59 59.96,-11.38 79.61,-31.03l477.29 -477.08zm-530.75 306.93c39.68,-46.84 253.78,-254.66 315.41,-316.3 37.58,-37.57 119.85,-133.98 169.07,-147.16 93.18,-24.94 171.03,57.89 147.62,147.78 -12.26,47.1 -43.1,66.81 -68.11,92.24 -61.12,62.16 -462.96,483.48 -512.41,507.41 -103.16,49.9 -170.7,-48.08 -244.63,-121.99l-316.39 -316.48c-35.26,-35.26 -128.46,-111.19 -137.48,-173.33 -13.3,-91.71 73.73,-168.87 165.62,-131.06 37.32,15.35 283.35,262.56 321.08,306.75 19.76,23.16 140.38,143.53 160.22,152.14z"/>
 </g>
</svg>
