<?xml version="1.0" encoding="UTF-8"?>
<!DOCTYPE svg PUBLIC "-//W3C//DTD SVG 1.1//EN" "http://www.w3.org/Graphics/SVG/1.1/DTD/svg11.dtd">
<!-- Creator: CorelDRAW 2020 (64 Bit) -->
<svg xmlns="http://www.w3.org/2000/svg" xml:space="preserve" width="90.8752mm" height="67.6918mm" version="1.1" style="shape-rendering:geometricPrecision; text-rendering:geometricPrecision; image-rendering:optimizeQuality; fill-rule:evenodd; clip-rule:evenodd"
viewBox="0 0 9087.52 6769.18"
 xmlns:xlink="http://www.w3.org/1999/xlink"
 xmlns:xodm="http://www.corel.com/coreldraw/odm/2003">
 <defs>
  <style type="text/css">
   <![CDATA[
    .fil0 {fill:#FEFEFE}
   ]]>
  </style>
    <clipPath id="id0">
     <rect x="-383.94" y="-378.69" width="9858.19" height="7530.72"/>
    </clipPath>
 </defs>
 <g id="Camada_x0020_1">
  <metadata id="CorelCorpID_0Corel-Layer"/>
  <g id="_2270554242608">
   <g>
   </g>
   <g>
   </g>
  </g>
  <g id="_2270554241264">
   <g style="clip-path:url(#id0)">
    <image x="-383.94" y="-378.69" width="9858.19" height="7530.72" xlink:href="iconBrancoSombra_Images\iconBrancoSombra_ImgID1.png"/>
   </g>
  </g>
  <g id="_2270554239536">
   <g>
    <path class="fil0" d="M3741.23 3196.8c0,-397.37 195.68,-885.98 537.79,-1104.2 567.22,-361.8 1238.06,-77.95 1356.92,-75.31 11.77,-44.08 102.33,-193.2 131.41,-241.57l420.6 -743.08c-41.04,-61.28 -163.08,-126.18 -242.72,-160.1 -259.52,-110.56 -796.7,-224.65 -1046.02,-189.93 -304.7,42.43 -307.12,-14.45 -719.2,102.53 -221.45,62.87 -408.11,141.9 -579.05,256.42 -92.01,61.64 -151.22,98.45 -228.81,174.01 -42.65,41.53 -70,51.81 -112.58,96.28 -176.96,184.78 -307.49,390.82 -423.46,620.87 -141.5,280.72 -290.53,825.99 -288.41,1158.75 0.25,40.33 -0.47,62.39 -5.16,101.4 -0.93,7.77 -13.32,48.27 5.17,78.53 0,504.94 345.09,1200.76 615.33,1472.42 146.93,147.7 50.69,71.76 238.63,238.77 232.39,206.51 427.57,319.18 762.47,416.14 477.33,138.21 1153.15,137.24 1635.94,-54.47 373.61,-148.36 873.99,-469.56 1089.06,-790.73 -110.26,-73.83 -261.3,-217.35 -358.06,-268.55 85.54,-127.74 111.01,-113.1 209.1,-313.06 135.18,-275.56 165.83,-541.82 193.03,-851.5 9.03,-102.83 -13.74,-145.91 -14.48,-237.58 -0.45,-55.14 -0.88,-76.09 -7.83,-126.69 -1.96,-14.26 -4.33,-40.47 -6.35,-53.33l-15.41 -52.07c0,-172.65 -128.69,-421.9 -198.6,-539.3 -59.58,-100.06 -243.17,-368.54 -323.57,-422.37l-492.33 507.24c57.75,86.23 108.76,79.16 228.59,293.57 49.83,89.15 129.47,279.84 129.47,408.53 0,645.58 -381.73,1404.7 -1104.51,1505.42 -476.14,66.34 -733.91,-82.09 -965.8,-316.24 -186.07,-187.89 -421.16,-670.19 -421.16,-890.8z"/>
    <path class="fil0" d="M2061.91 3091.46c55.6,40.13 228.42,59.24 306.76,68.62 0,-276.74 137.96,-1029.97 229.17,-1301.52 47.91,-142.63 255.18,-476.28 349.22,-590.68 197.22,-239.91 376.14,-418.95 644.09,-579.26 249.68,-149.37 547.5,-289.32 909.85,-328.43 102.3,-11.04 137.98,-29.54 269.54,-28.85 338.58,1.78 462.69,-8.77 822.6,102.59 285.06,88.19 624.19,238.61 842.17,396.1 133.06,96.15 210.43,176.17 323.3,288.38 204.14,202.95 362.66,480 483.7,739.66 44.32,95.09 143.2,356.91 154.08,466.89l179.02 -74.59c0,-286.63 -252.43,-797.79 -372.82,-979.18 -581.08,-875.51 -1554.25,-1420.41 -2783.72,-1231.84 -744.41,114.18 -1481.67,526.57 -1895.13,1148.36 -96.24,144.74 -170.71,289.86 -234.15,452.12 -141.08,360.87 -298.56,1034.89 -227.68,1451.63z"/>
    <path class="fil0" d="M2368.67 3160.08c-78.34,-9.38 -251.16,-28.49 -306.76,-68.62 -304.66,0 -523.01,187.62 -574.01,476.85 -79.67,451.76 241.34,1794.75 1335.66,1246.15 63.93,-32.04 113.79,-66.17 171.71,-96.83 -48.05,-71.75 -118.94,-101.02 -238.03,-299.05 -179.09,-297.81 -388.57,-937.29 -388.57,-1258.5z"/>
    <path class="fil0" d="M4855.38 3120.45l32.24 -271.33c129.82,1.92 249.89,19.58 226.03,165.3 -20.31,124.02 -135.69,121.68 -258.27,106.03zm-353.28 582.69l253.62 0c1.14,-51.09 40.33,-289.61 67.06,-305.91 36.28,-22.11 274.82,10.05 360.54,-27.35 145.88,-63.65 381.57,-475.65 180.95,-693.02 -67.14,-72.74 -62.96,-74.96 -190.68,-77.87l-522.31 -29.7 -149.18 1133.85z"/>
    <path class="fil0" d="M7396.39 2324.96c12.39,172.59 58.53,411.24 33.91,591.55 -14.72,107.83 -8.81,195.54 -25.29,302.93 -15.76,102.74 -31.48,180.61 -56.43,271.78 -47.48,173.48 -104.48,306.47 -180.92,460.6 -129.02,260.1 -160.77,239.28 -263.6,392.84l116.32 107.53c129.73,-190.07 159.98,-196.89 276.55,-430.77 244.99,-491.53 305.44,-899.91 308.52,-1437.4 0.71,-124.46 -22.2,-224.52 -30.04,-333.65l-179.02 74.59z"/>
   </g>
   <g>
    <path class="fil0" d="M250.79 6217.33c-137.45,0 -104.43,46.27 -104.43,-417.74 279.21,0 358.05,-12.24 358.05,238.71 0,125.62 -124.74,179.03 -253.62,179.03zm-253.62 -522.17l0 1059.25 149.19 0 0 -417.73c160.79,0 278.46,12.69 412.14,-95.11 149.27,-120.36 168.73,-452.94 -103.56,-541.68 -128.96,-42.04 -321.62,-36.45 -457.77,-4.73z"/>
    <path class="fil0" d="M7919.17 6396.35c0,-447.71 447.57,-366.28 447.57,-74.59 0,200.67 -25.5,328.22 -253.63,328.22 -113.6,0 -193.94,-136.35 -193.94,-253.63zm-149.19 -74.59l0 104.43c0,450.53 760.87,487.25 760.87,-59.67 0,-559.52 -760.87,-494.27 -760.87,-44.76z"/>
    <path class="fil0" d="M1399.56 6366.52c0,-376.67 462.49,-374.79 462.49,-14.92 0,135.32 -67.32,298.38 -193.95,298.38l-74.6 0c-119.84,0 -193.94,-156.87 -193.94,-283.46zm-149.19 0c0,571 760.87,493.13 760.87,44.75 0,-251.32 -104.03,-447.57 -372.98,-447.57 -226.55,0 -387.89,175.54 -387.89,402.82z"/>
    <path class="fil0" d="M6800.24 6649.98c-124.47,0 -149.19,-1.04 -149.19,-134.28 0,-132.12 161.85,-149.18 298.38,-149.18 0,81.85 21.81,283.46 -149.19,283.46zm-253.62 -611.68c14.23,29.65 21.41,53.34 29.84,89.51 100.51,-8.36 372.97,-157.38 372.97,134.27 -171.53,0 -377.84,20.35 -441.68,200.24 -54.34,153.13 22.69,307.01 247.73,307.01 97.46,0 149.66,-49.87 208.87,-89.51 3.35,40.28 6.99,40.58 14.92,74.59l134.27 0c0,-79.07 -15.17,-150.49 -14.94,-253.6 0.49,-215 58.52,-537.11 -298.36,-537.11 -102.31,0 -190.75,32.5 -253.62,74.6z"/>
    <path class="fil0" d="M3637.41 6649.98c-114.27,0 -149.19,-7.77 -149.19,-134.28 0,-140.58 200.32,-149.18 313.3,-149.18 0,101.57 4.21,283.46 -164.11,283.46zm-253.62 -611.68c14.22,29.65 21.41,53.34 29.83,89.51 94.43,-7.86 372.98,-159.04 372.98,134.27 -631.71,0 -484.17,507.25 -253.62,507.25 164.38,0 150.64,-10.56 268.54,-89.51 19,39.6 13.61,15.96 14.92,74.59l134.27 0c0,-395.03 69.3,-790.71 -313.3,-790.71 -103.92,0 -185.64,38.62 -253.62,74.6z"/>
    <path class="fil0" d="M5815.58 6083.06c-10.22,-43.9 -14.91,-45.54 -14.91,-104.44l-134.27 0c0,152.61 14.91,248.17 14.91,402.81l0 372.98 149.19 0 0 -492.33c0,-175.77 358.06,-287.44 358.06,59.68l0 432.65 149.19 0c0,-202.42 34.84,-571.05 -70.16,-690.7 -200.74,-228.75 -410.04,-8.76 -452.01,19.35z"/>
    <path class="fil0" d="M7337.33 5799.59l0 179.03c-120.83,0 -119.36,-9.86 -119.36,74.6 0,56.47 34.81,44.76 119.36,44.76 0,250.32 -56.26,671.35 179.02,671.35l164.11 -14.92c0,-160.08 15.18,-104.43 -104.43,-104.43 -132.08,0 -89.52,-387.03 -89.52,-552 216.66,0 208.87,17.58 208.87,-74.6 0,-64.99 -63.22,-44.76 -208.87,-44.76l0 -208.87c-60.2,1.35 -98.34,18 -149.18,29.84z"/>
    <path class="fil0" d="M4472.87 6545.54c0,195.93 -336.16,61.3 -343.13,59.68 -4.49,53.9 -18.6,71.09 -29.84,119.35 130.68,30.45 16.26,44.76 268.54,44.76 168.98,0 301.81,-158.84 228.75,-317.86 -81.01,-176.33 -296.07,-119.58 -333.18,-278.9 15.14,-116.79 172.98,-103.22 283.46,-44.76 13.49,-28.11 37.22,-86.99 44.76,-119.35 -61.63,-14.36 -120.96,-44.76 -193.95,-44.76 -167.53,0 -331.55,136.59 -259.34,303.39 75.06,173.37 333.93,139.32 333.93,278.45z"/>
    <path class="fil0" d="M4816.01 5799.59l0 179.03 -119.35 0 0 119.36 119.35 0c0,546.32 -59.95,671.35 283.46,671.35 81.75,0 44.76,-67.02 44.76,-134.27 -233.49,54.4 -179.03,-62.57 -179.03,-537.08l193.95 0 0 -119.36 -193.95 0 0 -208.87c-60.2,1.35 -98.35,18 -149.19,29.84z"/>
    <path class="fil0" d="M2115.67 6381.43c0,201.07 146.78,387.9 343.14,387.9 213.73,0 164.56,-21.19 268.54,-29.84l-17.47 -118.92c-77.78,6.23 -78.93,29.41 -191.4,29.41 -329.66,0 -327.83,-552 -14.91,-552 113.41,0 116.31,-11.24 193.94,29.83 13.63,-28.4 26.54,-79.64 29.84,-119.35 -269.1,-129.12 -611.68,27.31 -611.68,372.97z"/>
    <path class="fil0" d="M3010.81 6112.89l0 -134.27 -134.27 0 0 775.79 164.11 0 0 -462.49c0,-149.67 128.08,-179.03 238.7,-179.03 0,-56.42 12.81,-149.19 -29.83,-149.19 -113.58,0 -162.32,58.38 -225.19,132.88l-13.52 16.31z"/>
    <path class="fil0" d="M937.07 6112.89l0 -134.27 -134.27 0 0 775.79 149.19 0c0,-170.11 -26.95,-477.9 58.74,-582.77 106.38,-130.21 194.88,37.33 194.88,-163.18 0,-97.65 -159.86,-12.27 -179.32,-0.29 -23.63,14.56 -28.87,18.61 -47.17,42.34l-42.05 62.38z"/>
    <path class="fil0" d="M8829.23 6097.98l-14.92 -119.36 -134.27 0c0,94.64 14.92,124.56 14.92,223.79l0 552 149.18 0c0,-229.74 -57.81,-641.52 164.12,-641.52l74.59 0c0,-56.42 12.81,-149.19 -29.84,-149.19 -56.22,0 -103,16.54 -137.28,41.75l-86.5 92.53z"/>
    <polygon class="fil0" points="5308.34,6754.41 5457.53,6754.41 5457.53,5978.62 5308.34,5978.62 "/>
    <path class="fil0" d="M5353.1 5859.27l74.59 0c73.13,-109.21 47.94,-179.03 -59.67,-179.03 -92.46,0 -115.54,179.03 -14.92,179.03z"/>
   </g>
  </g>
 </g>
</svg>
