<?xml version="1.0" encoding="UTF-8"?>
<!DOCTYPE svg PUBLIC "-//W3C//DTD SVG 1.1//EN" "http://www.w3.org/Graphics/SVG/1.1/DTD/svg11.dtd">
<!-- Creator: CorelDRAW 2020 (64 Bit) -->
<svg xmlns="http://www.w3.org/2000/svg" xml:space="preserve" width="51.37mm" height="51.114mm" version="1.1" style="shape-rendering:geometricPrecision; text-rendering:geometricPrecision; image-rendering:optimizeQuality; fill-rule:evenodd; clip-rule:evenodd"
viewBox="0 0 5137 5111.4"
 xmlns:xlink="http://www.w3.org/1999/xlink"
 xmlns:xodm="http://www.corel.com/coreldraw/odm/2003">
 <defs>
  <style type="text/css">
   <![CDATA[
    .fil0 {fill:#FEFEFE}
   ]]>
  </style>
 </defs>
 <g id="Camada_x0020_1">
  <metadata id="CorelCorpID_0Corel-Layer"/>
  <g id="_1874258616528">
   <path class="fil0" d="M204.06 2868.96c142.74,0 139.91,7.09 279.4,-25.4l43.57 -472.9c24.06,-214.54 12.08,-213.68 78.53,-446.4 26.13,-91.52 60.18,-168.88 95.58,-251.55l122.61 -224.53c51.79,-80.66 158.77,-223.3 224.68,-291.78 74.58,-77.48 81.78,-76.29 135.71,-126.76 282.49,-264.35 715.35,-458.3 1147.45,-512.02 567.67,-70.57 1082.3,91.71 1479.35,395.45 34.14,26.11 62.04,51.97 97.95,79.85 95.51,74.19 260.35,267.46 327.07,367.2 45.67,68.26 96.17,140.92 133.8,213.33 122.31,235.32 237.67,517.48 236.87,813 -0.16,57.07 8.72,94.47 8.56,160.76l-0.01 872.08c0,292.72 39.78,736.95 -51.87,981.06 -31.25,83.23 -91.3,141 -177.63,169.5 -134.64,44.45 -256.07,43.24 -405.5,43.24 -266.3,0 -504.42,-8.47 -770.46,-8.47 0,-129.18 -57.62,-283.44 -163.15,-361.78 -152.95,-113.55 -375.87,-103.89 -581.92,-103.89 -286.84,0 -550.33,165.29 -550.33,457.2 0,203.6 85.23,369.62 262.46,448.74 98.82,44.12 180.33,40.82 298.65,56.95 108.8,14.83 238.13,-6.29 344.82,-6.16 126.82,0.16 224.99,8.48 347.14,8.47 108.06,0 251.4,-8.14 355.15,0.45 64.65,5.35 134.91,7.33 206.8,8.02l158.81 0c49.89,-1.56 89.43,-8.8 151.35,-8.41 57.36,0.36 110.59,-3.97 168.02,-9.79 798.93,-81 907.61,-532.25 907.2,-1226.4l8.46 -524.93c-0.04,-63.18 6.95,-107.69 8.47,-159.11l0 -137.2c-2.82,-428.69 -26.55,-844.13 -122.1,-1181.79 -66.22,-233.97 -113.04,-309.84 -208.1,-503.1 -55.4,-112.63 -208.15,-331.77 -290.48,-429.18 -116.06,-137.33 -218.27,-239.54 -355.6,-355.6 -65.95,-55.75 -130.67,-102.82 -203.98,-151.62 -196.46,-130.8 -362.84,-220.57 -592.45,-296.55 -713.63,-236.13 -1510.39,-144.56 -2133.82,272.82 -494.19,330.86 -889.46,837.55 -1096.06,1393.14 -53.36,143.49 -126.54,395.26 -128.06,583.13 -0.56,68.9 -12.32,89.92 -2.47,163.05 8.16,60.53 5.06,103.27 15.55,162.25 5.38,30.27 8.58,40.67 15.42,69.25 6.1,25.49 7.25,52.87 26.15,66.99 17.94,13.4 114.29,29.39 148.41,29.39z"/>
   <path class="fil0" d="M3582.25 3520.89l101.6 0c308.62,0 561.93,-217.53 624.52,-510.02 11.2,-52.35 18.71,-111.34 25.16,-161.11l10.72 -184c0,-113.68 -16.53,-261.35 -38.94,-358.99 -50.88,-221.67 -136.61,-371.57 -325.36,-478.98 -128.22,-72.97 -263.34,-84.9 -414.63,-84.9 -97.86,0 -179.88,39.24 -240.66,81.07 -171.38,117.97 -122.64,348.96 -145.23,498.24l-12.09 318.12c-3.51,63.66 7.26,101.11 8.79,152.16 5.14,171.7 -7.41,560.66 144.97,659.36 57.41,37.18 167.7,69.05 261.15,69.05z"/>
   <path class="fil0" d="M788.26 2606.49c0,168.13 0.57,295.44 44,455.53 25.29,93.25 79.13,182.7 144.2,253.73 122.82,134.1 402.51,233.64 568.76,208.97 71.49,-10.62 109.21,-8.49 167.13,-28 186.55,-62.83 211.08,-189.15 233.55,-359.12 11.22,-84.88 -5.93,-273.92 -6.19,-387.19 -0.17,-74.85 8.9,-114.65 8.53,-186.2 -1.46,-283.72 44.04,-647.69 -183.52,-773.32 -161.11,-88.94 -355.97,-52.65 -520.41,1.65 -261.8,86.46 -364.43,265.38 -424.06,524.21 -18.11,78.63 -31.99,190.52 -31.99,289.74z"/>
  </g>
 </g>
</svg>
